<?xml version="1.0" encoding="UTF-8"?>
<!DOCTYPE svg PUBLIC "-//W3C//DTD SVG 1.1//EN" "http://www.w3.org/Graphics/SVG/1.1/DTD/svg11.dtd">
<!-- Creator: CorelDRAW -->
<svg xmlns="http://www.w3.org/2000/svg" xml:space="preserve" width="237.921mm" height="80.5259mm" version="1.1" style="shape-rendering:geometricPrecision; text-rendering:geometricPrecision; image-rendering:optimizeQuality; fill-rule:evenodd; clip-rule:evenodd"
viewBox="0 0 23777.85 8047.77"
 xmlns:xlink="http://www.w3.org/1999/xlink"
 xmlns:xodm="http://www.corel.com/coreldraw/odm/2003">
 <defs>
  <style type="text/css">
   <![CDATA[
    .fil0 {fill:url(#id0)}
   ]]>
  </style>
  <radialGradient id="id0" gradientUnits="userSpaceOnUse" gradientTransform="matrix(3.17811 0.0319989 -0.0329748 2.78083 6876 -7640)" cx="-3091.12" cy="4345.79" r="18150.35" fx="-3091.12" fy="4345.79">
   <stop offset="0" style="stop-opacity:1; stop-color:#2524D4"/>
   <stop offset="0.188235" style="stop-opacity:1; stop-color:#5D118E"/>
   <stop offset="0.380392" style="stop-opacity:1; stop-color:#4A1EA0"/>
   <stop offset="0.768627" style="stop-opacity:1; stop-color:#380296"/>
   <stop offset="1" style="stop-opacity:1; stop-color:#010058"/>
  </radialGradient>
 </defs>
 <g id="Camada_x0020_1">
  <metadata id="CorelCorpID_0Corel-Layer"/>
  <path class="fil0" d="M17161.5 568.23c7.01,-56.11 27.11,-101.76 60.51,-136.89 33.39,-35.04 71.03,-52.64 113.22,-52.64l1189.96 0c42.11,0 79.91,17.6 113.22,52.64 33.33,35.13 55.32,80.78 65.77,136.89l471.22 2917.84 1705.26 -115.43 -1731.26 -45.65 26 161.08 -922.72 62.55 -184.65 -1408.25 -79.91 -708.6 -105.29 0 -31.44 267.08 -244.44 1893.44 -938.59 63.57 493.13 -3087.64zm-9488.98 5195.85l-700.45 -1213.15c-101.39,-175.74 -304.29,-422.12 -304.29,-527.13 0,-105.07 204.99,-355.13 307.5,-532.65 232.42,-402.47 464.77,-804.99 697.18,-1207.51 525.24,1096.43 525.18,2384.01 0.06,3480.44zm-3952.4 2281.61l-700.28 -1213.26c-101.45,-175.69 -213.34,-474.64 -304.28,-527.13 -91,-52.57 -410,-0.12 -615.04,-0.12 -464.76,0 -929.53,-0.06 -1394.3,-0.12 686.79,1003.19 1801.82,1647.03 3013.9,1740.64zm3640.1 -6303.09l-1400.83 -0.12c-202.9,-0.12 -517.76,52.38 -608.7,-0.12 -91,-52.57 -205.03,-355.13 -307.49,-532.66 -232.3,-402.52 -464.65,-805.04 -697,-1207.63 1212.19,93.49 2327.11,737.46 3014.01,1740.53zm-15.91 4585.62l-1400.84 -9.56c-202.9,-1.37 -517.4,-56.02 -608.63,-4.11 -91.42,51.86 -207.53,353.59 -311.23,530.46 -235.09,400.99 -470.18,801.84 -705.32,1202.76 1212.78,-85.06 2332.15,-721.29 3026.02,-1719.55zm-3596.27 -6328.22l-708.65 1208.4c-102.76,174.98 -216.67,473.14 -307.97,525 -91.36,51.91 -410.06,-2.74 -615.04,-4.16 -464.71,-3.21 -929.47,-6.36 -1394.3,-9.5 693.79,-998.44 1813.22,-1634.51 3025.96,-1719.73zm-3354.17 5764.08l700.45 -1213.15c101.38,-175.74 304.28,-422.12 304.28,-527.13 0,-105.07 -204.98,-355.13 -307.49,-532.65 -232.42,-402.47 -464.77,-804.99 -697.19,-1207.51 -525.24,1096.43 -525.18,2384.01 -0.05,3480.44zm22088.66 893.87c-38.58,0 -70.18,17.52 -94.76,52.65 -24.53,35.04 -36.86,78.96 -36.86,131.69l0 631.83c0,52.57 -13.2,96.49 -39.53,131.61 -26.32,35.12 -58.76,52.65 -97.35,52.65l-705.61 0c-38.67,0 -71.12,-17.53 -97.36,-52.65 -26.32,-35.12 -39.52,-79.04 -39.52,-131.61l0 -3512.04c0,-52.73 13.19,-96.57 39.52,-131.69 26.24,-35.05 58.69,-52.65 97.36,-52.65l1053.15 0c207.05,0 380.86,19.33 521.28,57.91 140.42,38.66 264.95,107.89 373.79,208 108.82,100.03 189.53,243.98 242.24,431.77 52.57,187.8 78.97,423.85 78.97,708.21 0,491.42 -86.04,854.75 -258.05,1089.94 -38.58,49.19 -49.11,107.1 -31.58,173.81l205.4 979.37c13.98,56.1 7.86,108.74 -18.47,157.94 -26.32,49.11 -62.31,73.71 -107.97,73.71l-710.79 0c-73.71,0 -115.9,-49.11 -126.35,-147.49l-121.09 -710.79c-3.54,-42.11 -18.47,-76.3 -44.79,-102.7 -26.31,-26.24 -53.59,-39.45 -81.63,-39.45zm-12622.37 -2274.08l-932.39 63.18 0 2.44 932.39 24.6 0 3005.22c0,49.19 13.19,91.31 39.52,126.42 26.24,35.12 56.97,52.65 92.17,52.65l716.06 0c35.12,0 65.85,-17.53 92.17,-52.65 26.24,-35.12 39.44,-77.23 39.44,-126.42l0 -463.28c0,-49.19 12.34,-91.32 36.86,-126.35 24.6,-35.21 54.46,-52.73 89.5,-52.73 442.3,0 766.98,-112.28 974.11,-337.01 207.13,-224.57 310.69,-628.29 310.69,-1211.01 0,-301.89 -27.19,-552.87 -81.64,-753 -31.28,-115.11 -72.77,-215.14 -124.4,-300l-2184.48 147.95zm979.36 1389.47l84.24 0c122.89,0 209.72,-37.79 260.63,-113.14 50.92,-75.51 76.37,-199.27 76.37,-371.28 0,-175.46 -24.59,-294.9 -73.7,-358.08 -49.19,-63.17 -136.89,-94.76 -263.31,-94.76l-84.24 0 0 937.26zm1728.44 1885.04c-49.19,0 -91.32,-23.74 -126.35,-71.12 -35.12,-47.38 -52.65,-104.43 -52.65,-171.14l0 -3203.54 979.29 -66.32 0 2174.75c0,66.63 17.6,123.68 52.73,171.06 35.05,47.39 75.43,71.12 121.09,71.12l563.38 0c49.19,0 91.32,23.66 126.35,71.04 35.13,47.38 52.65,104.43 52.65,171.14l0 610.76c0,66.71 -17.52,123.76 -52.65,171.14 -35.04,47.38 -77.16,71.12 -126.35,71.12l-1537.49 0zm3813.21 -3716.1c2.2,8.1 4.01,16.43 5.58,25l547.67 3390.95c13.99,77.23 3.47,146.62 -31.58,207.99 -35.2,61.45 -80.85,92.17 -136.96,92.17l-626.56 0c-37.48,0 -72.46,-15.72 -104.9,-46.99l-343.14 -2616.58 -2.21 -0.94 -18.46 -163.04 -105.29 0 -126.35 1074.13c-1.88,13.05 -2.99,25.85 -3.38,38.35l-195.65 1514.95 -1.02 5.26c-7.08,56.19 -27.27,102.7 -60.59,139.56 -33.31,36.93 -71.11,55.32 -113.14,55.32l-595.05 0c-56.19,0 -101.84,-30.72 -136.89,-92.17 -35.04,-61.36 -45.65,-129.02 -31.58,-202.65l529.6 -3316.37 1549.91 -104.91zm1043.88 3716.1c-35.21,0 -65.06,-16.66 -89.58,-49.98 -24.6,-33.39 -36.85,-74.65 -36.85,-123.76l0 -1005.69c0,-31.59 -1.81,-54.46 -5.28,-68.52l-726.58 -2395.78c-8.64,-29.39 -12.03,-57.44 -9.97,-84.31l994.92 -67.35c3.93,10.84 7.31,22.87 10.13,35.83l115.9 516.02c20.98,80.77 63.17,121.08 126.35,121.08 56.18,0 94.75,-40.31 115.82,-121.08l126.34 -521.28c6.05,-26.48 14.54,-48.41 25.53,-65.85l738.39 -49.97 104.9 0c45.65,0 80.77,25.45 105.37,76.37 24.52,50.92 28.05,104.43 10.45,160.53l-742.39 2390.52c-7,35.12 -10.53,59.71 -10.53,73.79l0 1005.69c0,49.11 -11.39,90.37 -34.26,123.76 -22.79,33.32 -51.7,49.98 -86.91,49.98l-731.77 0zm1686.24 -3717.43c0,-45.65 11.39,-84.23 34.18,-115.82 22.87,-31.59 51.86,-47.38 86.91,-47.38l1874.51 0c31.59,0 59.63,15.79 84.23,47.38 24.6,31.59 36.86,70.17 36.86,115.82l0 742.46c0,45.65 -12.26,84.24 -36.86,115.82 -24.6,31.59 -52.64,47.38 -84.23,47.38l-895.13 0c-35.05,0 -64.04,16.65 -86.91,50.05 -22.71,33.32 -34.18,71.03 -34.18,113.15 0,49.19 11.47,89.58 34.18,121.17 22.87,31.58 51.86,47.38 86.91,47.38l537.07 0c31.58,0 59.71,15.79 84.23,47.37 24.6,31.59 36.93,70.25 36.93,115.9l0 731.86c0,45.57 -12.33,84.23 -36.93,115.82 -24.52,31.59 -52.65,47.38 -84.23,47.38l-537.07 0c-35.05,0 -64.04,16.66 -86.91,49.97 -22.71,33.4 -34.18,71.12 -34.18,113.31l0 20.98c0,45.65 11.47,84.32 34.18,115.9 22.87,31.59 51.86,47.38 86.91,47.38l895.13 0c31.59,0 59.63,16.66 84.23,49.98 24.6,33.31 36.86,71.11 36.86,113.22l0 742.46c0,45.57 -12.26,85.1 -36.86,118.49 -24.6,33.32 -52.64,49.98 -84.23,49.98l-1874.51 0c-35.05,0 -64.04,-15.8 -86.91,-47.38 -22.79,-31.59 -34.18,-71.98 -34.18,-121.09l0 -3548.96zm3471.25 1653.4c140.43,0 210.66,-124.63 210.66,-373.87 0,-256.24 -77.24,-384.4 -231.64,-384.4l-84.31 0c-35.04,0 -65.77,18.47 -92.17,55.24 -26.32,36.94 -39.44,79.92 -39.44,129.1l0 389.59c0,52.72 12.25,96.57 36.85,131.69 24.6,35.04 56.18,52.65 94.76,52.65l105.29 0zm-13530.79 -4973.39c0,-66.72 17.53,-123.77 52.73,-171.15 35.04,-47.46 77.15,-71.11 126.34,-71.11l1132.04 0c91.32,0 149.22,63.17 173.74,189.53l84.32 621.38c14.06,66.71 45.64,100.03 94.75,100.03 52.57,0 84.16,-35.13 94.76,-105.3l68.45 -605.51c6.99,-56.18 27.18,-103.56 60.57,-142.13 33.32,-38.67 71.04,-58 113.15,-58l1168.97 0c49.11,0 91.24,23.65 126.35,71.11 35.13,47.38 52.65,104.43 52.65,171.15l0 3323.92 -979.37 66.32 0 -1752.72 -42.11 0 -221.11 1758.61 -1.73 12.11 -849.96 57.52c-8.34,-21.46 -13.99,-44.63 -17.13,-69.63l-215.93 -1758.61 -42.11 0 0 1758.61c0,31.9 -4.01,61.68 -12.02,89.12l-927.58 62.77c-26.56,-43.29 -39.77,-93.89 -39.77,-151.89l0 -3396.12zm3532.31 -79.05c0,-45.57 11.38,-84.24 34.18,-115.82 22.87,-31.59 51.78,-47.38 86.9,-47.38l1874.52 0c31.58,0 59.63,15.79 84.23,47.38 24.6,31.58 36.86,70.25 36.86,115.82l0 742.46c0,45.65 -12.26,84.23 -36.86,115.82 -24.6,31.59 -52.65,47.46 -84.23,47.46l-895.14 0c-35.13,0 -64.12,16.66 -86.91,49.97 -22.79,33.31 -34.18,71.12 -34.18,113.15 0,49.19 11.39,89.58 34.18,121.16 22.79,31.6 51.78,47.38 86.91,47.38l537.07 0c31.59,0 59.71,15.8 84.23,47.39 24.6,31.58 36.94,70.25 36.94,115.9l0 731.85c0,45.65 -12.34,84.24 -36.94,115.82 -24.52,31.59 -52.64,47.38 -84.23,47.38l-537.07 0c-35.13,0 -64.12,16.66 -86.91,50.06 -22.79,33.31 -34.18,71.03 -34.18,113.22l0 20.98c0,45.65 11.39,84.31 34.18,115.9 22.79,31.59 51.78,47.38 86.91,47.38l895.14 0c31.58,0 59.63,16.66 84.23,49.97 24.6,33.4 36.86,71.12 36.86,113.31l0 440.66 -2116.68 143.32 0 -3390.56zm2192.27 115.9c0,-77.24 19.33,-143 57.92,-197.47 38.66,-54.37 87.77,-81.63 147.48,-81.63l1705.97 0c52.65,0 98.3,27.26 136.88,81.63 38.67,54.47 57.91,120.23 57.91,197.47l0 542.32c0,77.17 -19.24,142.14 -57.91,194.79 -38.58,52.73 -84.23,78.97 -136.88,78.97l-152.75 0c-56.12,0 -103.49,27.26 -142.15,81.63 -38.58,54.39 -57.91,120.23 -57.91,197.47l0 1925.51 -974.03 65.92 0 -1991.43c0,-77.24 -19.41,-143.08 -58,-197.47 -38.66,-54.37 -86.04,-81.63 -142.13,-81.63l-179 0c-56.18,0 -104.51,-26.24 -144.81,-78.97 -40.4,-52.65 -60.58,-117.62 -60.58,-194.79l0 -542.32z"/>
 </g>
</svg>
